# xmcd
#
# Track frame offsets:
#	150
#	14774
#	29693
#	46963
#	64437
#	80717
#	96872
#	112133
#	127507
#	143164
#
# Disc length: 2120 seconds
#
# Revision: 0
# Processed by: cddbd v1.5.2PL0 Copyright (c) Steve Scherf et al.
# Submitted via: EasyCDDAExtractor 12.0.0.1
#
DISCID=8f08460a
DTITLE=Gérard Freling - Nos paradis perdus
DYEAR=2008
DGENRE=Vocal
TTITLE0=Ecoute, Il était une fois
TTITLE1=Vivre avec nos différences
TTITLE2=Je t'envoie
TTITLE3=Le parti d'en rire
TTITLE4=Nos dimanches de Kémia
TTITLE5=La cathédrale abandonnée
TTITLE6=Fatma m'a dit
TTITLE7=A six heures il fait nuit
TTITLE8=Nos paradis perdus
TTITLE9=Et puis rentrer chez moi
EXTD=
EXTT0=
EXTT1=
EXTT2=
EXTT3=
EXTT4=
EXTT5=
EXTT6=
EXTT7=
EXTT8=
EXTT9=
PLAYORDER=
